<?xml version="1.0" encoding="utf-8"?>
<!-- Generator: Adobe Illustrator 26.0.3, SVG Export Plug-In . SVG Version: 6.00 Build 0)  -->
<svg version="1.1" id="Layer_1" xmlns="http://www.w3.org/2000/svg" xmlns:xlink="http://www.w3.org/1999/xlink" x="0px" y="0px"
	 viewBox="0 0 1366 768" style="enable-background:new 0 0 1366 768;" xml:space="preserve">
<style type="text/css">
	.st0{fill:#D3B4ED;}
	.st1{fill-rule:evenodd;clip-rule:evenodd;fill:#EDDBF9;}
	.st2{fill:#EDDBF9;}
	.st3{fill:#BE93E4;}
	.st4{fill:#8E4EC6;}
</style>
<g>
	<g>
		<path class="st0" d="M578.67,348.98h9.08l31.17,83.59h-8.96l-8.6-23.29h-37.97l-8.72,23.29h-8.36L578.67,348.98z M566.13,402.12
			h32.6l-16.12-43.59L566.13,402.12z"/>
		<path class="st0" d="M675.04,395.55c0-11.15-5.17-16.72-15.52-16.72c-5.89,0-10.95,1.85-15.17,5.55
			c-4.22,3.7-6.33,9.02-6.33,15.94v32.24h-8.36v-58.51h7.17v12.54h1.19c5.33-9.95,13.29-14.93,23.88-14.93
			c14.33,0,21.49,7.96,21.49,23.88v37.02h-8.36V395.55z"/>
		<path class="st0" d="M703.1,374.05c2.07,0,3.54-0.82,4.42-2.45c0.88-1.63,1.39-4.4,1.55-8.3l0.6-14.33h5.97v25.08h16.72v6.57
			h-16.72v41.79c0,2.39,1.19,3.58,3.58,3.58h10.75v6.57h-10.75c-5.09,0-8.36-0.86-9.79-2.57c-1.43-1.71-2.15-4.84-2.15-9.37v-40
			h-14.33v-6.57H703.1z"/>
		<path class="st0" d="M791.47,395.55c0-11.15-5.17-16.72-15.52-16.72c-5.97,0-11.25,1.85-15.82,5.55
			c-4.58,3.7-6.87,9.02-6.87,15.94v32.24h-8.36v-89.56h8.36v35.82l-1.19,7.76h1.19c5.33-9.95,13.69-14.93,25.08-14.93
			c14.33,0,21.5,7.96,21.5,23.88v37.02h-8.36V395.55z"/>
		<path class="st0" d="M859.53,418.84c-1.75,2.15-3.72,4.28-5.91,6.39c-2.19,2.11-5.39,4.26-9.61,6.45
			c-4.22,2.19-8.4,3.28-12.54,3.28c-5.49,0-9.65-1.29-12.48-3.88c-2.83-2.59-4.24-6.07-4.24-10.45c0-2.95,0.72-5.63,2.15-8.06
			c1.43-2.43,3.17-4.42,5.2-5.97c2.03-1.55,4.62-2.97,7.76-4.24s5.97-2.25,8.48-2.93s5.45-1.27,8.84-1.79
			c3.38-0.52,5.79-0.84,7.22-0.96c1.43-0.12,3.14-0.26,5.13-0.42c-0.08-5.33-1.49-9.57-4.24-12.72c-2.75-3.15-7.7-4.72-14.87-4.72
			c-6.29,0-11.05,1.51-14.27,4.54c-3.22,3.03-4.84,6.89-4.84,11.58h-8.36c0-7.16,2.63-12.84,7.88-17.02
			c5.25-4.18,11.78-6.27,19.58-6.27c4.78,0,8.86,0.56,12.24,1.67c3.38,1.12,6.05,2.57,8,4.36c1.95,1.79,3.48,4.14,4.6,7.04
			c1.12,2.91,1.83,5.75,2.15,8.54c0.32,2.79,0.48,6.13,0.48,10.03v16.72c0,3.66,0.42,5.97,1.25,6.93s2.41,1.43,4.72,1.43h1.79v4.18
			h-16.12V418.84z M859.53,402.83c-24.28,2.31-36.42,8.04-36.42,17.2c0,5.17,3.58,7.76,10.75,7.76c4.7,0,9.43-1.71,14.21-5.13
			c4.78-3.42,8.6-6.89,11.46-10.39V402.83z"/>
		<path class="st0" d="M932.38,395.55c0-11.15-5.17-16.72-15.52-16.72c-5.89,0-10.95,1.85-15.17,5.55
			c-4.22,3.7-6.33,9.02-6.33,15.94v32.24H887v-58.51h7.17v12.54h1.19c5.33-9.95,13.29-14.93,23.88-14.93
			c14.33,0,21.49,7.96,21.49,23.88v37.02h-8.36V395.55z"/>
		<path class="st0" d="M1000.26,423.91c3.86-2.59,6.11-5.87,6.75-9.85h8.36c-1.11,6.93-4.42,12.14-9.91,15.64s-12.1,5.25-19.82,5.25
			c-9.87,0-17.73-3.03-23.58-9.08c-5.85-6.05-8.78-13.57-8.78-22.57s2.89-16.52,8.66-22.57s13.59-9.08,23.46-9.08
			c10.27,0,18.03,2.77,23.29,8.3c5.25,5.53,7.88,12.52,7.88,20.96v3.58h-54.93c0.24,6.45,2.33,11.94,6.27,16.48
			c3.94,4.54,9.85,6.81,17.73,6.81C991.53,427.79,996.4,426.5,1000.26,423.91z M969.28,384.26c-3.82,3.62-6.25,8.18-7.28,13.67
			h45.97c-0.24-2.31-0.8-4.52-1.67-6.63c-0.88-2.11-2.15-4.14-3.82-6.09c-1.67-1.95-3.98-3.5-6.93-4.66
			c-2.95-1.16-6.33-1.73-10.15-1.73C978.47,378.83,973.1,380.64,969.28,384.26z"/>
	</g>
	<g>
		<polygon class="st1" points="499.44,463.98 481.76,313.98 441.73,436.65 		"/>
		<polygon class="st2" points="349.44,439.77 481.76,313.98 402.22,431.08 		"/>
		<polygon class="st3" points="402.22,431.08 419.27,449.66 481.76,313.98 		"/>
		<polygon class="st4" points="419.27,449.66 481.76,313.98 441.73,436.65 		"/>
	</g>
</g>
</svg>
